HIERARCHY
ROOT root
{
	OFFSET	0	13.1	24.9
	CHANNELS 6  Xposition Yposition Zposition Xrotation Yrotation Zrotation
	JOINT spine_1
	{
		OFFSET	0	9.99999	0
		CHANNELS 3  Xrotation Yrotation Zrotation
		JOINT spine_2
		{
			OFFSET	0	112	-10
			CHANNELS 3  Xrotation Yrotation Zrotation
			JOINT spine_3
			{
				OFFSET	0	206.5	19.3
				CHANNELS 3  Xrotation Yrotation Zrotation
				JOINT spine_4
				{
					OFFSET	0	110.4	14.6
					CHANNELS 3  Xrotation Yrotation Zrotation
					JOINT neck_1
					{
						OFFSET	0	71.8	-50.3
						CHANNELS 3  Xrotation Yrotation Zrotation
						JOINT neck_2
						{
							OFFSET	0	86.2	-25.8
							CHANNELS 3  Xrotation Yrotation Zrotation
							JOINT head_ee
							{
								OFFSET	0	179.8	-8.7
								CHANNELS 3  Xrotation Yrotation Zrotation
								End Site
								{
									OFFSET	1	0	0
								}
							}
						}
					}
					JOINT left_clavicle
					{
						OFFSET	-43.2	22.4	-70.8
						CHANNELS 3  Xrotation Yrotation Zrotation
						JOINT left_shoulder
						{
							OFFSET	-93.9	-5.79999	48.7
							CHANNELS 3  Xrotation Yrotation Zrotation
							JOINT left_elbow
							{
								OFFSET	-291.4	-30.8	15.2
								CHANNELS 3  Xrotation Yrotation Zrotation
								JOINT left_lowarm_twist
								{
									OFFSET	-110.7	-3.89999	13.6
									CHANNELS 3  Xrotation Yrotation Zrotation
									JOINT left_hand
									{
										OFFSET	-110.7	-3.89999	13.6
										CHANNELS 3  Xrotation Yrotation Zrotation
										JOINT left_ee
										{
											OFFSET	-80.8	-5.10001	12.1
											CHANNELS 3  Xrotation Yrotation Zrotation
											End Site
											{
												OFFSET	1	0	0
											}
										}
									}
								}
							}
						}
					}
					JOINT right_clavicle
					{
						OFFSET	43.2	22.4	-70.8
						CHANNELS 3  Xrotation Yrotation Zrotation
						JOINT right_shoulder
						{
							OFFSET	93.9	-5.79999	48.7
							CHANNELS 3  Xrotation Yrotation Zrotation
							JOINT right_elbow
							{
								OFFSET	291.4	-30.8	15.2
								CHANNELS 3  Xrotation Yrotation Zrotation
								JOINT right_lowarm_twist
								{
									OFFSET	110.7	-3.89999	13.6
									CHANNELS 3  Xrotation Yrotation Zrotation
									JOINT right_hand
									{
										OFFSET	110.7	-3.89999	13.6
										CHANNELS 3  Xrotation Yrotation Zrotation
										JOINT right_ee
										{
											OFFSET	80.8	-5.10001	12.1
											CHANNELS 3  Xrotation Yrotation Zrotation
											End Site
											{
												OFFSET	1	0	0
											}
										}
									}
								}
							}
						}
					}
				}
			}
		}
	}
	JOINT left_hip
	{
		OFFSET	-82.8	-127.5	0.300001
		CHANNELS 3  Xrotation Yrotation Zrotation
		JOINT left_knee
		{
			OFFSET	-28.2	-396.7	2.2
			CHANNELS 3  Xrotation Yrotation Zrotation
			JOINT left_ankle
			{
				OFFSET	-11.7	-411.3	35.4
				CHANNELS 3  Xrotation Yrotation Zrotation
				JOINT left_toes
				{
					OFFSET	0	-60	-88.6
					CHANNELS 3  Xrotation Yrotation Zrotation
					JOINT left_foot_ee
					{
						OFFSET	-22.5	-16.5	-42.2
						CHANNELS 3  Xrotation Yrotation Zrotation
						End Site
						{
							OFFSET	1	0	0
						}
					}
				}
			}
		}
	}
	JOINT right_hip
	{
		OFFSET	82.8	-127.5	0.300001
		CHANNELS 3  Xrotation Yrotation Zrotation
		JOINT right_knee
		{
			OFFSET	28.2	-396.7	2.2
			CHANNELS 3  Xrotation Yrotation Zrotation
			JOINT right_ankle
			{
				OFFSET	11.7	-411.3	35.4
				CHANNELS 3  Xrotation Yrotation Zrotation
				JOINT right_toes
				{
					OFFSET	0	-60	-88.6
					CHANNELS 3  Xrotation Yrotation Zrotation
					JOINT right_foot_ee
					{
						OFFSET	22.5	-16.5	-42.2
						CHANNELS 3  Xrotation Yrotation Zrotation
						End Site
						{
							OFFSET	1	0	0
						}
					}
				}
			}
		}
	}
}
MOTION
Frames: 5
Frame Time: 0.02
2798.4711072 688.002 -1654.43171417 9.72832525479 50.5522350666 -11.1143143814 -1.56699 0.420589 1.46477 -1.56585 0.32654 1.48856 -1.55605 -0.0349671 1.52355 -1.55923 0.206059 1.50995 -2.71966 21.9118 8.1351 -2.07786 33.6391 11.3797 -0.0 0.0 -0.0 3.99613 24.636 8.20119 -0.523366 -7.62826 61.2744 2.03239 -45.1886 0.84584 -26.0122 -1.60073 2.88627 -1.86683 23.9434 -1.14495 -0.0 0.0 -0.0 12.3134 18.2096 -24.7698 -13.5149 19.7538 -66.4755 0.358282 10.0644 -0.0315486 -3.53376 0.137834 -0.430074 6.94694 -14.6499 -61.7738 0.0 0.0 0.0 -17.2567 26.139 9.38568 -0.0727085 0.00298701 0.010758 35.0504 -17.2696 -4.77481 -17.8293 0.0 0.0 -0.0 0.0 -0.0 11.489 29.6609 0.0628085 -61.8459 2.40257 -8.7256 37.069 -17.3447 4.6971 -1.87238 0.0 0.0 0.0 0.0 0.0 
2782.98807817 685.113 -1636.58425461 11.9740806122 52.478270672 -13.2319214416 -1.79319 0.346058 1.32549 -1.79225 0.26102 1.34482 -1.78501 -0.0700983 1.36812 -1.7876 0.14683 1.36202 -3.59092 22.2887 8.20057 -3.01582 34.5955 11.7135 -0.0 0.0 -0.0 4.16026 24.2806 8.42912 0.601467 -8.75349 60.2149 2.19949 -47.4481 0.966706 -26.6711 -1.6576 2.94869 -1.99367 23.802 -1.93629 -0.0 0.0 -0.0 12.3732 17.8765 -24.9264 -14.8995 20.8167 -65.01 0.305502 8.60585 -0.0229866 -6.35009 0.266544 -0.766339 6.90951 -16.1669 -61.7021 0.0 0.0 0.0 -19.4129 26.9534 10.3162 -0.896918 0.0358909 0.132963 35.3388 -16.9909 -4.79417 -17.563 0.0 0.0 -0.0 0.0 -0.0 13.0682 29.9863 -0.736674 -61.68 2.3841 -8.70788 36.9864 -17.129 4.6854 -2.28047 0.0 0.0 0.0 0.0 0.0 
2775.65419554 687.796 -1621.29849443 10.8848914784 54.2944226121 -11.284443904 -1.7998 0.349886 1.1828 -1.79907 0.273918 1.20266 -1.7924 -0.0235374 1.23323 -1.79448 0.171509 1.22148 -3.99125 22.2701 7.32664 -3.47578 35.3694 10.9347 -0.0 0.0 -0.0 4.24466 24.1981 8.546 2.87828 -7.73724 59.6695 2.41471 -50.0969 1.12862 -27.575 -1.73679 3.03328 -2.1697 23.3041 -3.18939 -0.0 0.0 -0.0 12.6182 17.3963 -25.5181 -14.8537 18.4706 -63.7136 0.287527 8.10645 -0.0203744 -5.47602 0.224827 -0.662649 7.09054 -16.219 -64.4881 0.0 0.0 0.0 -20.4178 25.8604 10.5753 5.3646 -0.257787 -0.782361 33.4029 -17.3274 -4.60712 -18.5545 0.0 0.0 -0.0 0.0 -0.0 16.7337 29.1001 -4.59023 -54.7282 1.65841 -7.9196 35.7734 -17.312 4.56926 -4.16673 0.0 0.0 0.0 0.0 0.0 
2759.24423311 685.641 -1593.35162299 11.7191697485 59.029179557 -10.992308242 -1.92027 0.202589 0.969055 -1.91976 0.140518 0.979981 -1.91677 -0.101587 0.984778 -1.91812 0.055207 0.988463 -5.16929 22.0063 6.97499 -4.82053 35.5238 10.8857 -0.0 0.0 -0.0 4.27135 23.7482 8.59028 5.63681 -9.05538 58.5543 2.87571 -54.9213 1.49472 -29.3055 -1.8921 3.19171 -2.47203 22.8767 -5.15036 -0.0 0.0 -0.0 13.0357 17.1989 -26.4976 -15.5589 17.955 -63.114 0.221451 6.26048 -0.0121106 -7.56438 0.327119 -0.909322 7.16102 -17.6828 -66.1034 0.0 0.0 0.0 -22.1941 26.4755 9.8124 8.81719 -0.462068 -1.27203 33.4934 -17.6105 -4.62632 -19.2735 0.0 0.0 -0.0 0.0 -0.0 20.948 27.7296 -9.1038 -42.808 0.655007 -6.38684 32.7098 -17.616 4.25987 -6.18467 0.0 0.0 0.0 0.0 0.0 
2747.49881054 682.179 -1583.04852041 12.7881644805 59.5195203496 -11.7175816975 -2.008 0.243307 0.870204 -2.0076 0.187442 0.883921 -2.00419 -0.0341172 0.902931 -2.00531 0.108906 0.896989 -7.03149 22.3841 8.273 -6.88782 35.8786 12.8088 -0.0 0.0 -0.0 4.27622 22.7441 8.61243 6.70954 -9.16515 57.9387 3.00972 -56.1378 1.6052 -29.8589 -1.94276 3.24138 -2.56058 22.6904 -5.76108 -0.0 0.0 -0.0 12.9597 17.0492 -26.3278 -15.6792 18.1342 -63.1956 0.218537 6.17876 -0.0117949 -8.44524 0.372955 -1.01223 7.20245 -18.2666 -66.9958 0.0 0.0 0.0 -23.8692 26.6097 10.2056 5.66743 -0.274516 -0.825783 32.9188 -17.819 -4.57282 -19.8911 0.0 0.0 -0.0 0.0 -0.0 21.7532 27.2141 -9.98193 -36.0672 0.235704 -5.43987 30.9225 -19.2124 4.09296 -7.44613 0.0 0.0 0.0 0.0 0.0 
